HIERARCHY
ROOT Hips
{
 OFFSET 0.000000 0.000000 0.000000
 CHANNELS 6 Xposition Yposition Zposition Yrotation Xrotation Zrotation
 JOINT Chest
 {
  OFFSET 0.000000 9.585900 0.002600
  CHANNELS 3 Yrotation Xrotation Zrotation
  JOINT Chest2
  {
   OFFSET 0.000000 9.601200 -0.005300
   CHANNELS 3 Yrotation Xrotation Zrotation
   JOINT Chest3
   {
    OFFSET 0.000000 9.561800 0.000000
    CHANNELS 3 Yrotation Xrotation Zrotation
    JOINT Chest4
    {
     OFFSET 0.000000 9.552100 0.000000
     CHANNELS 3 Yrotation Xrotation Zrotation
     JOINT Neck
     {
      OFFSET 0.000000 14.453000 0.000000
      CHANNELS 3 Yrotation Xrotation Zrotation
      JOINT Head
      {
       OFFSET 0.000000 8.936500 -0.011300
       CHANNELS 3 Yrotation Xrotation Zrotation
       End Site
       {
        OFFSET 0.000000 17.073600 -0.006000
       }
      }
     }
     JOINT RightCollar
     {
      OFFSET -2.921100 9.558500 0.000000
      CHANNELS 3 Yrotation Xrotation Zrotation
      JOINT RightShoulder
      {
       OFFSET -13.519700 0.000000 0.000000
       CHANNELS 3 Yrotation Xrotation Zrotation
       JOINT RightElbow
       {
        OFFSET 0.000000 -29.696600 0.000000
        CHANNELS 3 Yrotation Xrotation Zrotation
        JOINT RightWrist
        {
         OFFSET 0.000000 -24.004700 0.000000
         CHANNELS 3 Yrotation Xrotation Zrotation
         End Site
         {
          OFFSET 0.000000 -17.728500 0.000000
         }
        }
       }
      }
     }
     JOINT LeftCollar
     {
      OFFSET 2.921100 9.558500 0.000000
      CHANNELS 3 Yrotation Xrotation Zrotation
      JOINT LeftShoulder
      {
       OFFSET 13.519700 0.000000 0.000000
       CHANNELS 3 Yrotation Xrotation Zrotation
       JOINT LeftElbow
       {
        OFFSET 0.000000 -29.696600 0.000000
        CHANNELS 3 Yrotation Xrotation Zrotation
        JOINT LeftWrist
        {
         OFFSET 0.000000 -24.004700 0.000000
         CHANNELS 3 Yrotation Xrotation Zrotation
         End Site
         {
          OFFSET 0.000000 -17.728500 0.000000
         }
        }
       }
      }
     }
    }
   }
  }
 }
 JOINT RightHip
 {
  OFFSET -7.771700 -0.012900 -0.001300
  CHANNELS 3 Yrotation Xrotation Zrotation
  JOINT RightKnee
  {
   OFFSET 0.000000 -40.869800 0.001200
   CHANNELS 3 Yrotation Xrotation Zrotation
   JOINT RightAnkle
   {
    OFFSET 0.000000 -39.717900 0.002100
    CHANNELS 3 Yrotation Xrotation Zrotation
    JOINT RightToe
    {
     OFFSET 0.000000 -4.965400 11.033500
     CHANNELS 3 Yrotation Xrotation Zrotation
     End Site
     {
      OFFSET 0.000000 -1.423100 5.872300
     }
    }
   }
  }
 }
 JOINT LeftHip
 {
  OFFSET 7.771700 -0.012900 -0.001300
  CHANNELS 3 Yrotation Xrotation Zrotation
  JOINT LeftKnee
  {
   OFFSET 0.000000 -40.869800 0.001200
   CHANNELS 3 Yrotation Xrotation Zrotation
   JOINT LeftAnkle
   {
    OFFSET 0.000000 -39.717900 0.002100
    CHANNELS 3 Yrotation Xrotation Zrotation
    JOINT LeftToe
    {
     OFFSET 0.000000 -4.965400 11.033500
     CHANNELS 3 Yrotation Xrotation Zrotation
     End Site
     {
      OFFSET 0.000000 -1.423100 5.872300
     }
    }
   }
  }
 }
}
MOTION
Frames: 11
Frame Time: 0.008333
-27.976200 47.040893 22.887725 -179.180007 -30.599991 -4.187466 0.225166 18.601270 2.108408 -0.035100 2.110962 0.227709 -0.053569 3.491862 0.376155 -0.055204 16.067565 1.741459 -0.740465 16.776263 3.007304 -2.408771 -4.547701 5.823782 0.077093 1.095013 -1.684251 5.625827 -6.269633 -14.360571 -61.805540 -71.144524 107.860152 0.389786 4.233549 -22.578812 0.266985 -0.607489 2.127183 -3.568551 -1.866492 13.705807 80.867601 -73.613858 -119.036839 -2.353909 10.722604 8.487235 1.692320 -56.608126 -6.072615 163.520657 80.917964 171.820701 -3.550764 -21.381071 -4.644870 0.022529 -0.038783 -0.279813 -3.613161 -57.808528 9.986941 -104.789288 81.105349 -109.907679 4.898945 -6.215557 5.306297 0.217169 0.257947 0.162738
-28.027343 47.015247 22.877080 -179.281301 -30.608397 -4.184602 0.287412 18.595485 2.124838 -0.031217 2.104609 0.224756 -0.047202 3.481814 0.371379 -0.027963 16.048337 1.725110 -0.780558 16.719035 2.962879 -2.470525 -4.653877 5.757675 0.088247 1.070013 -1.652164 5.667106 -6.272151 -14.290443 -61.479598 -71.144823 107.526633 0.386760 4.266865 -22.562665 0.276529 -0.602330 2.117172 -3.552971 -1.821255 13.761527 80.848675 -73.609280 -118.984316 -2.335594 10.709926 8.468815 1.308194 -56.592195 -6.139854 165.726058 80.952008 174.069875 -3.552962 -21.395364 -4.724752 0.007437 -0.079371 -0.258151 -3.558267 -57.818609 10.013369 -105.074595 81.096229 -110.174707 4.821764 -6.299107 5.283261 0.302302 0.318934 0.188260
-28.086865 46.987274 22.873176 -179.339140 -30.560855 -4.164700 0.298274 18.541225 2.105109 -0.027632 2.098123 0.221431 -0.041337 3.471541 0.366045 0.001692 16.048074 1.727531 -0.833145 16.633345 2.879336 -2.530763 -4.776911 5.659020 0.096390 1.040661 -1.642962 5.696442 -6.293023 -14.225763 -61.152498 -71.145472 107.192493 0.384307 4.287774 -22.553939 0.269558 -0.598894 2.106941 -3.492349 -1.787765 13.819203 80.813851 -73.577353 -118.900994 -2.342475 10.692514 8.410087 0.976495 -56.633754 -6.321908 167.910372 80.966217 176.305803 -3.570373 -21.396006 -4.791901 -0.002896 -0.123474 -0.239223 -3.443063 -57.902212 9.904327 -105.455492 81.132523 -110.508578 4.801178 -6.306397 5.279583 0.330644 0.315874 0.185584
-28.142504 46.965130 22.864332 -179.426682 -30.548125 -4.155926 0.349443 18.524704 2.119248 -0.024617 2.091624 0.217817 -0.023301 3.468178 0.369332 0.013509 16.035965 1.717079 -0.887289 16.544967 2.780688 -2.585188 -4.914414 5.528957 0.096157 0.996593 -1.642233 5.721116 -6.296707 -14.157618 -60.824123 -71.145584 106.864890 0.391024 4.275634 -22.559837 0.256770 -0.595398 2.092819 -3.402232 -1.725477 13.889203 80.905494 -73.545587 -119.020634 -2.303428 10.691621 8.427386 0.668166 -56.634490 -6.481051 170.141251 80.976473 178.602329 -3.599428 -21.377352 -4.846568 -0.009552 -0.175444 -0.224553 -3.353290 -57.944644 9.855298 -105.938854 81.147986 -110.943190 4.771211 -6.350210 5.270259 0.374450 0.321796 0.188843
-28.192953 46.948451 22.851714 -179.539525 -30.564672 -4.160424 0.442901 18.537254 2.169886 -0.031463 2.086407 0.212063 -0.003750 3.463357 0.370159 0.018032 16.009429 1.683760 -0.931147 16.467385 2.691188 -2.630746 -5.063087 5.368772 0.090752 0.951664 -1.629320 5.744506 -6.281534 -14.083797 -60.486108 -71.147955 106.537592 0.386586 4.301229 -22.540810 0.244420 -0.576714 2.096825 -3.359483 -1.682271 13.939503 80.946668 -73.532613 -119.052199 -2.274768 10.699644 8.442229 0.373727 -56.599415 -6.608212 172.486717 80.982313 -178.977705 -3.631965 -21.340772 -4.888498 -0.012739 -0.232399 -0.212566 -3.284471 -57.951944 9.857647 -106.520320 81.152683 -111.469624 4.741788 -6.427086 5.251926 0.423015 0.339679 0.193331
-28.247675 46.930795 22.845158 -179.574809 -30.535693 -4.167864 0.470949 18.507407 2.191871 -0.039627 2.084412 0.208156 -0.014641 3.451424 0.359620 0.031955 15.989321 1.660477 -0.971188 16.386947 2.583685 -2.668039 -5.222397 5.182967 0.090388 0.925758 -1.623199 5.758177 -6.276684 -14.012838 -60.222228 -71.156303 106.285379 0.346361 4.398189 -22.513648 0.236896 -0.555749 2.093318 -3.321789 -1.643591 13.986238 80.961560 -73.519649 -119.050755 -2.258216 10.710356 8.445681 0.086070 -56.603566 -6.814673 174.952635 80.966771 -176.439056 -3.679188 -21.296077 -4.912118 -0.012365 -0.291460 -0.199714 -3.227720 -58.001471 9.796605 -106.821782 81.189736 -111.734090 4.671407 -6.466696 5.280071 0.493724 0.373985 0.189077
-28.297105 46.918491 22.835199 -179.636554 -30.536533 -4.180811 0.499918 18.510460 2.217655 -0.019595 2.078740 0.210719 -0.069528 3.437416 0.334520 0.070414 15.951799 1.616311 -0.980298 16.327247 2.494437 -2.697282 -5.392288 4.975231 0.113674 0.922575 -1.591901 5.763085 -6.262622 -13.942117 -59.839704 -71.160008 105.929809 0.352136 4.374955 -22.512878 0.263259 -0.507801 2.135150 -3.298921 -1.617085 14.011259 80.941721 -73.510054 -119.013652 -2.268590 10.701142 8.426222 -0.196180 -56.575123 -6.982047 177.615012 80.938406 -173.702902 -3.740726 -21.235760 -4.927980 -0.012109 -0.353467 -0.183686 -3.179092 -58.018235 9.774379 -107.252508 81.206090 -112.117664 4.648304 -6.516970 5.269230 0.530877 0.384540 0.197281
-28.337616 46.908586 22.827100 -179.853478 -30.539621 -4.155874 0.610160 18.528394 2.262890 0.035898 2.059281 0.211554 -0.044350 3.430378 0.336588 0.076676 15.937983 1.596904 -1.020396 16.229229 2.357005 -2.719466 -5.569251 4.747697 0.117960 0.897056 -1.592171 5.760074 -6.252682 -13.886245 -59.472212 -71.148621 105.587693 0.354065 4.364410 -22.512796 0.267873 -0.496607 2.138319 -3.279172 -1.596489 14.032754 80.924446 -73.508439 -118.993988 -2.255512 10.715928 8.429803 -0.407235 -56.561495 -7.066006 -179.463313 80.903976 -170.702300 -3.794190 -21.144866 -4.958420 -0.015566 -0.409362 -0.161383 -3.073611 -58.035278 9.837975 -107.866531 81.207984 -112.668037 4.610026 -6.599505 5.230687 0.584258 0.395234 0.213442
-28.381801 46.897808 22.824109 -179.990786 -30.503873 -4.139229 0.685539 18.497712 2.295350 0.004772 2.059782 0.202321 -0.012487 3.415755 0.332731 0.129985 15.936024 1.600635 -1.069230 16.120026 2.199550 -2.734647 -5.748866 4.503990 0.119326 0.888495 -1.592244 5.751180 -6.258523 -13.854142 -59.227998 -71.137171 105.360871 0.323288 4.397000 -22.515316 0.230478 -0.499627 2.080033 -3.234122 -1.577127 14.098908 80.881170 -73.512905 -118.949381 -2.246923 10.735887 8.427914 -0.658030 -56.579176 -7.200058 -176.416794 80.835704 -167.585075 -3.842627 -21.060236 -5.001381 -0.020464 -0.458487 -0.129770 -3.021860 -58.081897 9.892153 -108.144289 81.202016 -112.922476 4.572618 -6.639259 5.228967 0.647904 0.401761 0.227249
-28.436683 46.874232 22.844864 179.675943 -30.313089 -3.952788 0.890380 18.301246 2.248557 0.050900 2.049723 0.205982 -0.058290 3.411679 0.319497 0.175166 15.920045 1.583524 -1.097164 16.026900 2.055985 -2.739349 -5.928244 4.248182 0.115384 0.857683 -1.593789 5.758485 -6.218987 -13.805211 -58.940378 -71.100247 105.091548 0.318162 4.399545 -22.519532 0.226725 -0.483976 2.076017 -3.209380 -1.566658 14.127779 80.864545 -73.516921 -118.936949 -2.246543 10.753296 8.422129 -0.650263 -56.873664 -7.514339 -173.517418 80.733126 -164.662110 -3.781819 -20.727773 -5.023759 -0.153847 -0.635836 -0.147210 -2.713320 -58.296891 9.830927 -108.382699 81.193410 -113.141376 4.524480 -6.671341 5.220352 0.738446 0.403616 0.255799
-28.486684 46.860937 22.851447 179.480544 -30.212508 -3.860383 1.021422 18.196343 2.239839 0.028217 2.050163 0.200717 -0.055198 3.404294 0.313587 0.212389 15.902768 1.566907 -1.122241 15.936643 1.906735 -2.730508 -6.105140 3.982585 0.094230 0.797156 -1.605921 5.782782 -6.142528 -13.752324 -58.609725 -71.034826 104.783844 0.327986 4.387874 -22.529195 0.222620 -0.470095 2.074194 -3.203073 -1.571319 14.139995 80.786736 -73.531648 -118.846197 -2.249587 10.793189 8.396555 -0.845631 -56.977706 -7.713513 -170.481675 80.623522 -161.595185 -3.754804 -20.584548 -5.078595 -0.257548 -0.697346 -0.146052 -2.528587 -58.416256 9.782884 -108.599476 81.205957 -113.333922 4.433919 -6.688271 5.246693 0.843133 0.408269 0.260312
